<?xml version="1.0" encoding="UTF-8" standalone="no"?>
<!-- Created with Inkscape (http://www.inkscape.org/) -->

<svg
   xmlns:dc="http://purl.org/dc/elements/1.1/"
   xmlns:cc="http://creativecommons.org/ns#"
   xmlns:rdf="http://www.w3.org/1999/02/22-rdf-syntax-ns#"
   xmlns:svg="http://www.w3.org/2000/svg"
   xmlns="http://www.w3.org/2000/svg"
   xmlns:sodipodi="http://sodipodi.sourceforge.net/DTD/sodipodi-0.dtd"
   xmlns:inkscape="http://www.inkscape.org/namespaces/inkscape"
   width="706"
   height="49.164959"
   id="svg2"
   version="1.1"
   inkscape:version="0.48.3.1 r9886"
   sodipodi:docname="2015.masthead.svg"
   inkscape:export-filename="/media/terabyte/FERNANDO/Stationery/2015.masthead.png"
   inkscape:export-xdpi="300.22803"
   inkscape:export-ydpi="300.22803">
  <defs
     id="defs4" />
  <sodipodi:namedview
     id="base"
     pagecolor="#ffffff"
     bordercolor="#666666"
     borderopacity="1.0"
     inkscape:pageopacity="0.0"
     inkscape:pageshadow="2"
     inkscape:zoom="0.49497475"
     inkscape:cx="919.14306"
     inkscape:cy="-88.949127"
     inkscape:document-units="px"
     inkscape:current-layer="layer1"
     showgrid="false"
     fit-margin-top="2"
     fit-margin-left="3"
     fit-margin-right="3"
     fit-margin-bottom="2"
     borderlayer="true"
     inkscape:showpageshadow="false"
     inkscape:window-width="1366"
     inkscape:window-height="740"
     inkscape:window-x="0"
     inkscape:window-y="0"
     inkscape:window-maximized="1" />
  <metadata
     id="metadata7">
    <rdf:RDF>
      <cc:Work
         rdf:about="">
        <dc:format>image/svg+xml</dc:format>
        <dc:type
           rdf:resource="http://purl.org/dc/dcmitype/StillImage" />
        <dc:title></dc:title>
      </cc:Work>
    </rdf:RDF>
  </metadata>
  <g
     inkscape:label="Layer 1"
     inkscape:groupmode="layer"
     id="layer1"
     transform="translate(-914.25002,-610.07604)">
    <g
       id="g3083"
       style="fill:#0099cc;fill-opacity:1"
       transform="matrix(0.41487508,0,0,0.41487508,537.54402,384.56809)">
      <path
         d="m 936.82971,611.017 45.504,0 0,-18.288 -45.504,0 0,-23.328 51.984,0 0,-18.288 -73.584,0 0,103.392 21.6,0 0,-43.488"
         style="font-size:144px;font-style:normal;font-variant:normal;font-weight:bold;font-stretch:normal;text-align:start;line-height:125%;letter-spacing:0px;word-spacing:0px;writing-mode:lr-tb;text-anchor:start;fill:#0099cc;fill-opacity:1;stroke:none;font-family:Helvetica LT Std;-inkscape-font-specification:Helvetica LT Std Bold"
         id="path3011"
         inkscape:connector-curvature="0" />
      <path
         d="m 1035.9568,632.041 c -1.584,5.472 -7.3441,8.352 -12.96,8.352 -16.272,0 -17.424,-12.96 -18,-18.72 l 52.56,0 0,-3.6 c 0,-34.99196 -20.8801,-42.192 -36,-42.192 -33.552,0 -36.72003,29.52001 -36.72003,38.736 0,31.53597 16.56003,41.904 38.16003,41.904 13.1039,0 28.368,-6.04801 33.696,-24.48 l -20.736,0 m -30.384,-23.472 c 1.152,-10.07999 6.192,-16.128 15.696,-16.128 6.4799,0 14.4,3.74402 15.552,16.128 l -31.248,0"
         style="font-size:144px;font-style:normal;font-variant:normal;font-weight:bold;font-stretch:normal;text-align:start;line-height:125%;letter-spacing:0px;word-spacing:0px;writing-mode:lr-tb;text-anchor:start;fill:#0099cc;fill-opacity:1;stroke:none;font-family:Helvetica LT Std;-inkscape-font-specification:Helvetica LT Std Bold"
         id="path3013"
         inkscape:connector-curvature="0" />
      <path
         d="m 1060.897,654.505 20.16,0 0,-39.888 c 0,-8.49599 2.88,-18.288 18.576,-18.288 1.872,0 4.032,1e-5 5.76,0.288 l 0,-20.448 c -1.296,-0.14399 -2.592,-0.288 -3.888,-0.288 -12.24,0 -16.848,7.48801 -21.024,15.264 l -0.288,0 0,-13.248 -19.296,0 0,76.608"
         style="font-size:144px;font-style:normal;font-variant:normal;font-weight:bold;font-stretch:normal;text-align:start;line-height:125%;letter-spacing:0px;word-spacing:0px;writing-mode:lr-tb;text-anchor:start;fill:#0099cc;fill-opacity:1;stroke:none;font-family:Helvetica LT Std;-inkscape-font-specification:Helvetica LT Std Bold"
         id="path3015"
         inkscape:connector-curvature="0" />
      <path
         d="m 1178.0441,601.513 c 0,-16.84798 -11.6641,-25.632 -26.64,-25.632 -14.544,0 -20.304,8.64001 -23.04,13.248 l -0.288,0 0,-11.232 -19.296,0 0,76.608 20.16,0 0,-43.92 c 0,-11.66398 6.912,-17.712 15.84,-17.712 12.8159,0 13.104,9.50401 13.104,15.12 l 0,46.512 20.16,0 0,-52.992"
         style="font-size:144px;font-style:normal;font-variant:normal;font-weight:bold;font-stretch:normal;text-align:start;line-height:125%;letter-spacing:0px;word-spacing:0px;writing-mode:lr-tb;text-anchor:start;fill:#0099cc;fill-opacity:1;stroke:none;font-family:Helvetica LT Std;-inkscape-font-specification:Helvetica LT Std Bold"
         id="path3017"
         inkscape:connector-curvature="0" />
      <path
         d="m 1246.8753,598.057 c 0,-18.86398 -19.728,-22.176 -30.528,-22.176 -15.696,0 -31.968,3.31203 -34.272,26.784 l 19.44,0 c 0.576,-4.46399 2.304,-10.656 12.384,-10.656 5.184,0 13.248,0.43201 13.248,8.928 0,4.32 -3.888,5.61601 -7.056,6.048 l -18.144,2.736 c -12.816,1.872 -22.32,9.50402 -22.32,24.48 0,15.83999 11.808,22.32 23.328,22.32 13.68,0 20.16,-6.336 24.768,-11.088 0.432,4.32 0.72,5.47201 1.872,9.072 l 21.744,0 0,-3.024 c -2.448,-0.86399 -4.464,-2.88 -4.464,-11.952 l 0,-41.472 m -19.728,28.944 c 0,9.36 -9.072,15.12 -18,15.12 -3.888,0 -9.36,-2.16 -9.36,-9.216 0,-8.35199 6.192,-10.224 13.68,-11.52 8.352,-1.29599 11.664,-2.592 13.68,-4.176 l 0,9.792"
         style="font-size:144px;font-style:normal;font-variant:normal;font-weight:bold;font-stretch:normal;text-align:start;line-height:125%;letter-spacing:0px;word-spacing:0px;writing-mode:lr-tb;text-anchor:start;fill:#0099cc;fill-opacity:1;stroke:none;font-family:Helvetica LT Std;-inkscape-font-specification:Helvetica LT Std Bold"
         id="path3019"
         inkscape:connector-curvature="0" />
      <path
         d="m 1324.2316,601.513 c 0,-16.84798 -11.6641,-25.632 -26.64,-25.632 -14.544,0 -20.304,8.64001 -23.04,13.248 l -0.288,0 0,-11.232 -19.296,0 0,76.608 20.16,0 0,-43.92 c 0,-11.66398 6.912,-17.712 15.84,-17.712 12.8159,0 13.104,9.50401 13.104,15.12 l 0,46.512 20.16,0 0,-52.992"
         style="font-size:144px;font-style:normal;font-variant:normal;font-weight:bold;font-stretch:normal;text-align:start;line-height:125%;letter-spacing:0px;word-spacing:0px;writing-mode:lr-tb;text-anchor:start;fill:#0099cc;fill-opacity:1;stroke:none;font-family:Helvetica LT Std;-inkscape-font-specification:Helvetica LT Std Bold"
         id="path3021"
         inkscape:connector-curvature="0" />
      <path
         d="m 1403.0031,551.113 -20.16,0 0,36.72 -0.288,0 c -3.168,-4.89599 -9.216,-11.952 -22.176,-11.952 -16.848,0 -31.824,12.96003 -31.824,39.456 0,21.02398 9.504,41.184 32.256,41.184 8.352,0 17.28,-3.024 22.176,-11.664 l 0.288,0 0,9.648 19.728,0 0,-103.392 m -53.712,65.664 c 0,-12.09598 4.32,-23.472 17.136,-23.472 13.824,0 17.28,12.38402 17.28,24.624 0,11.37599 -5.04,22.032 -17.856,22.032 -12.96,0 -16.56,-14.112 -16.56,-23.184"
         style="font-size:144px;font-style:normal;font-variant:normal;font-weight:bold;font-stretch:normal;text-align:start;line-height:125%;letter-spacing:0px;word-spacing:0px;writing-mode:lr-tb;text-anchor:start;fill:#0099cc;fill-opacity:1;stroke:none;font-family:Helvetica LT Std;-inkscape-font-specification:Helvetica LT Std Bold"
         id="path3023"
         inkscape:connector-curvature="0" />
      <path
         d="m 1484.9427,616.201 c 0,-27.64797 -18.5761,-40.32 -39.168,-40.32 -20.592,0 -39.168,12.67203 -39.168,40.32 0,27.64798 18.576,40.32 39.168,40.32 20.5919,0 39.168,-12.67202 39.168,-40.32 m -20.736,0 c 0,9.792 -2.8801,23.328 -18.432,23.328 -15.552,0 -18.432,-13.536 -18.432,-23.328 0,-9.79199 2.88,-23.328 18.432,-23.328 15.5519,0 18.432,13.53601 18.432,23.328"
         style="font-size:144px;font-style:normal;font-variant:normal;font-weight:bold;font-stretch:normal;text-align:start;line-height:125%;letter-spacing:0px;word-spacing:0px;writing-mode:lr-tb;text-anchor:start;fill:#0099cc;fill-opacity:1;stroke:none;font-family:Helvetica LT Std;-inkscape-font-specification:Helvetica LT Std Bold"
         id="path3025"
         inkscape:connector-curvature="0" />
      <path
         d="m 1486.6656,654.505 43.776,0 c 21.168,0 26.784,-3.6 32.688,-9.36 5.472,-5.32799 8.928,-13.104 8.928,-21.312 0,-10.22398 -3.312,-20.304 -15.984,-25.056 4.32,-2.15999 12.672,-6.33601 12.672,-21.168 0,-10.65598 -6.48,-26.496 -31.824,-26.496 l -50.256,0 0,103.392 m 20.736,-45.504 27.504,0 c 7.776,0 15.552,3.45601 15.552,12.528 0,10.51199 -6.048,15.12 -16.56,15.12 l -26.496,0 0,-27.648 m 0,-40.032 24.768,0 c 9.792,0 15.84,2.59201 15.84,11.088 0,8.208 -6.768,11.52 -15.264,11.52 l -25.344,0 0,-22.608"
         style="font-size:144px;font-style:normal;font-variant:normal;font-weight:bold;font-stretch:normal;text-align:start;line-height:125%;letter-spacing:0px;word-spacing:0px;writing-mode:lr-tb;text-anchor:start;fill:#0099cc;fill-opacity:1;stroke:none;font-family:Helvetica LT Std;-inkscape-font-specification:Helvetica LT Std Bold"
         id="path3027"
         inkscape:connector-curvature="0" />
      <path
         d="m 1624.2161,632.041 c -1.584,5.472 -7.344,8.352 -12.96,8.352 -16.272,0 -17.424,-12.96 -18,-18.72 l 52.56,0 0,-3.6 c 0,-34.99196 -20.88,-42.192 -36,-42.192 -33.552,0 -36.72,29.52001 -36.72,38.736 0,31.53597 16.56,41.904 38.16,41.904 13.104,0 28.368,-6.04801 33.696,-24.48 l -20.736,0 m -30.384,-23.472 c 1.152,-10.07999 6.192,-16.128 15.696,-16.128 6.48,0 14.4,3.74402 15.552,16.128 l -31.248,0"
         style="font-size:144px;font-style:normal;font-variant:normal;font-weight:bold;font-stretch:normal;text-align:start;line-height:125%;letter-spacing:0px;word-spacing:0px;writing-mode:lr-tb;text-anchor:start;fill:#0099cc;fill-opacity:1;stroke:none;font-family:Helvetica LT Std;-inkscape-font-specification:Helvetica LT Std Bold"
         id="path3029"
         inkscape:connector-curvature="0" />
      <path
         d="m 1709.6204,594.457 0,-16.56 -62.064,0 0,16.128 36.576,0 -39.312,44.784 0,15.696 66.24,0 0,-16.56 -40.176,0 38.736,-43.488"
         style="font-size:144px;font-style:normal;font-variant:normal;font-weight:bold;font-stretch:normal;text-align:start;line-height:125%;letter-spacing:0px;word-spacing:0px;writing-mode:lr-tb;text-anchor:start;fill:#0099cc;fill-opacity:1;stroke:none;font-family:Helvetica LT Std;-inkscape-font-specification:Helvetica LT Std Bold"
         id="path3031"
         inkscape:connector-curvature="0" />
      <path
         d="m 1759.7786,632.041 c -1.584,5.472 -7.344,8.352 -12.96,8.352 -16.272,0 -17.424,-12.96 -18,-18.72 l 52.56,0 0,-3.6 c 0,-34.99196 -20.88,-42.192 -36,-42.192 -33.552,0 -36.72,29.52001 -36.72,38.736 0,31.53597 16.56,41.904 38.16,41.904 13.104,0 28.368,-6.04801 33.696,-24.48 l -20.736,0 m -30.384,-23.472 c 1.152,-10.07999 6.192,-16.128 15.696,-16.128 6.48,0 14.4,3.74402 15.552,16.128 l -31.248,0"
         style="font-size:144px;font-style:normal;font-variant:normal;font-weight:bold;font-stretch:normal;text-align:start;line-height:125%;letter-spacing:0px;word-spacing:0px;writing-mode:lr-tb;text-anchor:start;fill:#0099cc;fill-opacity:1;stroke:none;font-family:Helvetica LT Std;-inkscape-font-specification:Helvetica LT Std Bold"
         id="path3033"
         inkscape:connector-curvature="0" />
      <path
         d="m 1784.7189,654.505 20.16,0 0,-39.888 c 0,-8.49599 2.88,-18.288 18.576,-18.288 1.872,0 4.032,1e-5 5.76,0.288 l 0,-20.448 c -1.296,-0.14399 -2.592,-0.288 -3.888,-0.288 -12.24,0 -16.848,7.48801 -21.024,15.264 l -0.288,0 0,-13.248 -19.296,0 0,76.608"
         style="font-size:144px;font-style:normal;font-variant:normal;font-weight:bold;font-stretch:normal;text-align:start;line-height:125%;letter-spacing:0px;word-spacing:0px;writing-mode:lr-tb;text-anchor:start;fill:#0099cc;fill-opacity:1;stroke:none;font-family:Helvetica LT Std;-inkscape-font-specification:Helvetica LT Std Bold"
         id="path3035"
         inkscape:connector-curvature="0" />
      <path
         d="m 1832.4376,654.505 20.16,0 0,-39.888 c 0,-8.49599 2.88,-18.288 18.576,-18.288 1.872,0 4.032,1e-5 5.76,0.288 l 0,-20.448 c -1.296,-0.14399 -2.592,-0.288 -3.888,-0.288 -12.24,0 -16.848,7.48801 -21.024,15.264 l -0.288,0 0,-13.248 -19.296,0 0,76.608"
         style="font-size:144px;font-style:normal;font-variant:normal;font-weight:bold;font-stretch:normal;text-align:start;line-height:125%;letter-spacing:0px;word-spacing:0px;writing-mode:lr-tb;text-anchor:start;fill:#0099cc;fill-opacity:1;stroke:none;font-family:Helvetica LT Std;-inkscape-font-specification:Helvetica LT Std Bold"
         id="path3037"
         inkscape:connector-curvature="0" />
      <path
         d="m 1943.8019,598.057 c 0,-18.86398 -19.7281,-22.176 -30.528,-22.176 -15.696,0 -31.968,3.31203 -34.272,26.784 l 19.44,0 c 0.576,-4.46399 2.304,-10.656 12.384,-10.656 5.184,0 13.248,0.43201 13.248,8.928 0,4.32 -3.888,5.61601 -7.056,6.048 l -18.144,2.736 c -12.816,1.872 -22.32,9.50402 -22.32,24.48 0,15.83999 11.808,22.32 23.328,22.32 13.6799,0 20.16,-6.336 24.768,-11.088 0.432,4.32 0.72,5.47201 1.872,9.072 l 21.744,0 0,-3.024 c -2.448,-0.86399 -4.464,-2.88 -4.464,-11.952 l 0,-41.472 m -19.728,28.944 c 0,9.36 -9.0721,15.12 -18,15.12 -3.888,0 -9.36,-2.16 -9.36,-9.216 0,-8.35199 6.192,-10.224 13.68,-11.52 8.3519,-1.29599 11.664,-2.592 13.68,-4.176 l 0,9.792"
         style="font-size:144px;font-style:normal;font-variant:normal;font-weight:bold;font-stretch:normal;text-align:start;line-height:125%;letter-spacing:0px;word-spacing:0px;writing-mode:lr-tb;text-anchor:start;fill:#0099cc;fill-opacity:1;stroke:none;font-family:Helvetica LT Std;-inkscape-font-specification:Helvetica LT Std Bold"
         id="path3039"
         inkscape:connector-curvature="0" />
      <path
         d="m 1946.1501,622.681 c 0,12.81599 6.48,34.56 44.208,34.56 9.072,0 40.752,-2.73603 40.752,-33.84 0,-18.57598 -12.96,-24.336 -27.072,-27.792 l -25.2,-6.192 c -4.32,-1.00799 -10.944,-2.736 -10.944,-10.8 0,-9.35999 9.792,-12.384 18,-12.384 18.864,0 20.592,10.94401 21.168,15.552 l 20.736,0 c -0.144,-12.67198 -8.64,-33.408 -40.32,-33.408 -33.552,0 -39.744,20.30402 -39.744,31.824 0,22.75198 16.128,26.49601 32.832,30.384 l 11.088,2.592 c 10.944,2.592 18.72,4.75201 18.72,12.816 0,10.94399 -11.376,13.392 -21.6,13.392 -18.864,0 -21.744,-10.944 -21.888,-16.704 l -20.736,0"
         style="font-size:144px;font-style:normal;font-variant:normal;font-weight:bold;font-stretch:normal;text-align:start;line-height:125%;letter-spacing:0px;word-spacing:0px;writing-mode:lr-tb;text-anchor:start;fill:#0099cc;fill-opacity:1;stroke:none;font-family:Helvetica LT Std;-inkscape-font-specification:Helvetica LT Std Bold"
         id="path3041"
         inkscape:connector-curvature="0" />
      <path
         d="m 2100.1456,598.057 c 0,-18.86398 -19.728,-22.176 -30.528,-22.176 -15.696,0 -31.968,3.31203 -34.272,26.784 l 19.44,0 c 0.576,-4.46399 2.304,-10.656 12.384,-10.656 5.184,0 13.248,0.43201 13.248,8.928 0,4.32 -3.888,5.61601 -7.056,6.048 l -18.144,2.736 c -12.816,1.872 -22.32,9.50402 -22.32,24.48 0,15.83999 11.808,22.32 23.328,22.32 13.68,0 20.16,-6.336 24.768,-11.088 0.432,4.32 0.72,5.47201 1.872,9.072 l 21.744,0 0,-3.024 c -2.448,-0.86399 -4.464,-2.88 -4.464,-11.952 l 0,-41.472 m -19.728,28.944 c 0,9.36 -9.072,15.12 -18,15.12 -3.888,0 -9.36,-2.16 -9.36,-9.216 0,-8.35199 6.192,-10.224 13.68,-11.52 8.352,-1.29599 11.664,-2.592 13.68,-4.176 l 0,9.792"
         style="font-size:144px;font-style:normal;font-variant:normal;font-weight:bold;font-stretch:normal;text-align:start;line-height:125%;letter-spacing:0px;word-spacing:0px;writing-mode:lr-tb;text-anchor:start;fill:#0099cc;fill-opacity:1;stroke:none;font-family:Helvetica LT Std;-inkscape-font-specification:Helvetica LT Std Bold"
         id="path3043"
         inkscape:connector-curvature="0" />
      <path
         d="m 2177.5019,601.513 c 0,-16.84798 -11.6641,-25.632 -26.64,-25.632 -14.544,0 -20.304,8.64001 -23.04,13.248 l -0.288,0 0,-11.232 -19.296,0 0,76.608 20.16,0 0,-43.92 c 0,-11.66398 6.912,-17.712 15.84,-17.712 12.8159,0 13.104,9.50401 13.104,15.12 l 0,46.512 20.16,0 0,-52.992"
         style="font-size:144px;font-style:normal;font-variant:normal;font-weight:bold;font-stretch:normal;text-align:start;line-height:125%;letter-spacing:0px;word-spacing:0px;writing-mode:lr-tb;text-anchor:start;fill:#0099cc;fill-opacity:1;stroke:none;font-family:Helvetica LT Std;-inkscape-font-specification:Helvetica LT Std Bold"
         id="path3045"
         inkscape:connector-curvature="0" />
      <path
         d="m 2208.8771,557.161 -20.16,0 0,20.736 -10.368,0 0,14.4 10.368,0 0,46.512 c 0,9.93599 3.168,16.56 20.592,16.56 l 2.592,0 c 3.168,0 6.336,-0.144 9.504,-0.288 l 0,-15.264 c -1.44,0.144 -2.88,0.288 -4.176,0.288 -8.208,0 -8.352,-1.728 -8.352,-6.192 l 0,-41.616 12.528,0 0,-14.4 -12.528,0 0,-20.736"
         style="font-size:144px;font-style:normal;font-variant:normal;font-weight:bold;font-stretch:normal;text-align:start;line-height:125%;letter-spacing:0px;word-spacing:0px;writing-mode:lr-tb;text-anchor:start;fill:#0099cc;fill-opacity:1;stroke:none;font-family:Helvetica LT Std;-inkscape-font-specification:Helvetica LT Std Bold"
         id="path3047"
         inkscape:connector-curvature="0" />
      <path
         d="m 2290.4269,598.057 c 0,-18.86398 -19.7281,-22.176 -30.528,-22.176 -15.696,0 -31.968,3.31203 -34.272,26.784 l 19.44,0 c 0.576,-4.46399 2.304,-10.656 12.384,-10.656 5.184,0 13.248,0.43201 13.248,8.928 0,4.32 -3.888,5.61601 -7.056,6.048 l -18.144,2.736 c -12.816,1.872 -22.32,9.50402 -22.32,24.48 0,15.83999 11.808,22.32 23.328,22.32 13.6799,0 20.16,-6.336 24.768,-11.088 0.432,4.32 0.72,5.47201 1.872,9.072 l 21.744,0 0,-3.024 c -2.448,-0.86399 -4.464,-2.88 -4.464,-11.952 l 0,-41.472 m -19.728,28.944 c 0,9.36 -9.0721,15.12 -18,15.12 -3.888,0 -9.36,-2.16 -9.36,-9.216 0,-8.35199 6.192,-10.224 13.68,-11.52 8.3519,-1.29599 11.664,-2.592 13.68,-4.176 l 0,9.792"
         style="font-size:144px;font-style:normal;font-variant:normal;font-weight:bold;font-stretch:normal;text-align:start;line-height:125%;letter-spacing:0px;word-spacing:0px;writing-mode:lr-tb;text-anchor:start;fill:#0099cc;fill-opacity:1;stroke:none;font-family:Helvetica LT Std;-inkscape-font-specification:Helvetica LT Std Bold"
         id="path3049"
         inkscape:connector-curvature="0" />
      <path
         d="m 2298.1031,654.505 21.168,0 0,-40.464 22.32,0 c 15.984,0 16.848,5.47202 16.848,19.584 0,10.65599 0.864,15.98401 2.304,20.88 l 23.904,0 0,-2.736 c -4.608,-1.72799 -4.608,-5.47201 -4.608,-20.592 0,-19.29598 -4.608,-22.464 -13.104,-26.208 10.224,-3.45599 15.984,-13.24801 15.984,-24.624 0,-8.92799 -5.04,-29.232 -32.544,-29.232 l -52.272,0 0,103.392 m 21.168,-57.888 0,-27.648 26.928,0 c 12.672,0 15.12,8.06401 15.12,13.536 0,10.22399 -5.472,14.112 -16.704,14.112 l -25.344,0"
         style="font-size:144px;font-style:normal;font-variant:normal;font-weight:bold;font-stretch:normal;text-align:start;line-height:125%;letter-spacing:0px;word-spacing:0px;writing-mode:lr-tb;text-anchor:start;fill:#0099cc;fill-opacity:1;stroke:none;font-family:Helvetica LT Std;-inkscape-font-specification:Helvetica LT Std Bold"
         id="path3051"
         inkscape:connector-curvature="0" />
      <path
         d="m 2459.6411,616.201 c 0,-27.64797 -18.576,-40.32 -39.168,-40.32 -20.592,0 -39.168,12.67203 -39.168,40.32 0,27.64798 18.576,40.32 39.168,40.32 20.592,0 39.168,-12.67202 39.168,-40.32 m -20.736,0 c 0,9.792 -2.88,23.328 -18.432,23.328 -15.552,0 -18.432,-13.536 -18.432,-23.328 0,-9.79199 2.88,-23.328 18.432,-23.328 15.552,0 18.432,13.53601 18.432,23.328"
         style="font-size:144px;font-style:normal;font-variant:normal;font-weight:bold;font-stretch:normal;text-align:start;line-height:125%;letter-spacing:0px;word-spacing:0px;writing-mode:lr-tb;text-anchor:start;fill:#0099cc;fill-opacity:1;stroke:none;font-family:Helvetica LT Std;-inkscape-font-specification:Helvetica LT Std Bold"
         id="path3053"
         inkscape:connector-curvature="0" />
      <path
         d="m 2526.8724,601.225 c -1.584,-21.59997 -19.4401,-25.344 -34.416,-25.344 -23.904,0 -30.96,14.40002 -30.96,25.632 0,28.65598 47.52,19.00802 47.52,31.824 0,2.88 -2.4481,7.92 -12.816,7.92 -12.672,0 -16.704,-4.752 -16.704,-11.232 l -20.736,0 c 0.576,20.44798 19.44,26.496 36.864,26.496 11.9519,0 33.552,-4.03202 33.552,-26.352 0,-28.22397 -47.952,-19.44001 -47.952,-31.536 0,-3.31199 1.44,-7.488 12.384,-7.488 10.9439,0 12.672,5.18401 13.536,10.08 l 19.728,0"
         style="font-size:144px;font-style:normal;font-variant:normal;font-weight:bold;font-stretch:normal;text-align:start;line-height:125%;letter-spacing:0px;word-spacing:0px;writing-mode:lr-tb;text-anchor:start;fill:#0099cc;fill-opacity:1;stroke:none;font-family:Helvetica LT Std;-inkscape-font-specification:Helvetica LT Std Bold"
         id="path3055"
         inkscape:connector-curvature="0" />
      <path
         d="m 2598.0206,598.057 c 0,-18.86398 -19.728,-22.176 -30.528,-22.176 -15.696,0 -31.968,3.31203 -34.272,26.784 l 19.44,0 c 0.576,-4.46399 2.304,-10.656 12.384,-10.656 5.184,0 13.248,0.43201 13.248,8.928 0,4.32 -3.888,5.61601 -7.056,6.048 l -18.144,2.736 c -12.816,1.872 -22.32,9.50402 -22.32,24.48 0,15.83999 11.808,22.32 23.328,22.32 13.68,0 20.16,-6.336 24.768,-11.088 0.432,4.32 0.72,5.47201 1.872,9.072 l 21.744,0 0,-3.024 c -2.448,-0.86399 -4.464,-2.88 -4.464,-11.952 l 0,-41.472 m -19.728,28.944 c 0,9.36 -9.072,15.12 -18,15.12 -3.888,0 -9.36,-2.16 -9.36,-9.216 0,-8.35199 6.192,-10.224 13.68,-11.52 8.352,-1.29599 11.664,-2.592 13.68,-4.176 l 0,9.792"
         style="font-size:144px;font-style:normal;font-variant:normal;font-weight:bold;font-stretch:normal;text-align:start;line-height:125%;letter-spacing:0px;word-spacing:0px;writing-mode:lr-tb;text-anchor:start;fill:#0099cc;fill-opacity:1;stroke:none;font-family:Helvetica LT Std;-inkscape-font-specification:Helvetica LT Std Bold"
         id="path3057"
         inkscape:connector-curvature="0" />
    </g>
  </g>
</svg>
